<svg width="13" height="23" viewBox="0 0 13 23" fill="none" xmlns="http://www.w3.org/2000/svg">
<path d="M10.3331 0.830898C10.7225 0.830183 11.0999 0.957623 11.3998 1.1911C11.5685 1.32257 11.708 1.48404 11.8103 1.66625C11.9125 1.84846 11.9755 2.04783 11.9956 2.25295C12.0158 2.45807 11.9926 2.66491 11.9276 2.86162C11.8625 3.05832 11.7568 3.24104 11.6164 3.39929L4.14975 11.7935L11.3498 20.2035C11.4882 20.3636 11.5916 20.548 11.654 20.7458C11.7164 20.9437 11.7365 21.1512 11.7133 21.3564C11.69 21.5616 11.6239 21.7605 11.5186 21.9415C11.4133 22.1226 11.271 22.2824 11.0998 22.4116C10.9273 22.5542 10.7254 22.6618 10.5066 22.7275C10.2878 22.7933 10.0569 22.8158 9.82846 22.7938C9.59997 22.7717 9.3788 22.7055 9.17883 22.5993C8.97886 22.4931 8.80441 22.3493 8.66642 22.1767L0.616419 12.7802C0.371283 12.5 0.237273 12.1485 0.237273 11.7857C0.237273 11.423 0.371283 11.0715 0.616419 10.7912L8.94975 1.39469C9.11695 1.20517 9.32934 1.05535 9.56969 0.957392C9.81004 0.859434 10.0716 0.816097 10.3331 0.830898Z" fill="#231F20"/>
</svg>
