<svg width="13" height="23" viewBox="0 0 13 23" fill="none" xmlns="http://www.w3.org/2000/svg">
<path d="M2.66691 22.7553C2.27749 22.756 1.9001 22.6286 1.60025 22.3951C1.43148 22.2636 1.29198 22.1022 1.18973 21.92C1.08747 21.7378 1.02448 21.5384 1.00435 21.3333C0.984227 21.1281 1.00736 20.9213 1.07244 20.7246C1.13751 20.5279 1.24324 20.3452 1.38358 20.1869L8.85025 11.7927L1.65025 3.38276C1.51181 3.22257 1.40842 3.03824 1.34603 2.84038C1.28365 2.64253 1.26349 2.43503 1.28672 2.22983C1.30995 2.02463 1.37612 1.82576 1.48141 1.64466C1.58669 1.46357 1.72904 1.30381 1.90025 1.17457C2.07269 1.032 2.27463 0.924458 2.4934 0.858699C2.71218 0.792941 2.94305 0.770383 3.17154 0.792441C3.40003 0.8145 3.6212 0.880698 3.82117 0.986882C4.02114 1.09307 4.19559 1.23694 4.33358 1.40948L12.3836 10.806C12.6287 11.0863 12.7627 11.4378 12.7627 11.8005C12.7627 12.1632 12.6287 12.5147 12.3836 12.795L4.05025 22.1915C3.88305 22.381 3.67066 22.5309 3.43031 22.6288C3.18996 22.7268 2.92842 22.7701 2.66691 22.7553Z" fill="#231F20"/>
</svg>
