<svg width="24" height="24" viewBox="0 0 24 24" fill="none" xmlns="http://www.w3.org/2000/svg">
<path fill-rule="evenodd" clip-rule="evenodd" d="M17.8171 6.98948C17.4641 6.48123 16.5202 5.76792 14.991 6.07507C14.0994 6.25417 13.5659 6.6962 13.2269 7.27774C12.8657 7.89717 12.6912 8.74021 12.6912 9.72163C12.6912 10.2739 12.2435 10.7216 11.6912 10.7216C9.32512 10.7216 7.07321 10.019 5.17819 8.11741C5.05529 8.80147 4.96954 9.61428 5.01021 10.4571C5.06261 11.5431 5.3223 12.6327 5.93722 13.5657C6.54164 14.4828 7.53719 15.3229 9.20065 15.8502C9.53233 15.9553 9.78552 16.2253 9.86916 16.563C9.95281 16.9007 9.85489 17.2577 9.61061 17.5055C9.01965 18.1049 8.42529 18.5545 7.81459 18.9104C8.87536 19.0201 9.89712 19.0281 10.8447 18.9424C12.7643 18.7688 14.2936 18.2194 15.25 17.4433C17.2626 15.8101 18.3404 13.3764 18.1394 9.29874C18.1064 8.62772 18.7526 7.90527 19.0647 7.35665C18.5938 7.4447 18.1218 7.42821 17.8171 6.98948ZM4.59375 4.98428C4.9629 4.94125 5.32546 5.10648 5.53516 5.41331C7.01054 7.57212 8.78262 8.47018 10.7489 8.6745C10.8454 7.83331 11.0724 7.00216 11.4991 6.2704C12.125 5.19675 13.143 4.40631 14.5972 4.11423C16.6066 3.71063 18.1366 4.43833 19.0244 5.32954L20.8162 4.99458C21.199 4.92304 21.5884 5.08014 21.8144 5.39722C22.0403 5.7143 22.0617 6.1337 21.8691 6.47211L20.1496 9.49419C20.3064 13.8556 19.0944 16.8993 16.5103 18.9963C15.1395 20.1086 13.178 20.7395 11.0249 20.9343C8.85497 21.1306 6.40214 20.8932 3.96382 20.1812C3.53604 20.0563 3.24254 19.6634 3.24412 19.2178C3.24569 18.7721 3.54195 18.3813 3.9706 18.2594C5.19682 17.9107 6.13012 17.6092 6.97377 17.0827C5.77531 16.4464 4.89225 15.6146 4.26726 14.6663C3.39859 13.3482 3.07648 11.8788 3.01253 10.5535C2.94859 9.22833 3.14009 8.00097 3.34178 7.11514C3.45659 6.61088 3.59069 6.10427 3.77553 5.62032C3.90978 5.27152 4.22461 5.02732 4.59375 4.98428Z" fill="black"/>
</svg>
